<?xml version="1.0" encoding="utf-8"?>
<!DOCTYPE svg PUBLIC "-//W3C//DTD SVG 1.0//EN" "http://www.w3.org/TR/2001/REC-SVG-20010904/DTD/svg10.dtd">
<svg
  version="1.0"
  xmlns="http://www.w3.org/2000/svg"
  width="100%"
  height="100%"
  viewBox="310 477 650 130"
  preserveAspectRatio="xMidYMid meet"
>
  <g fill="#ffffffff">
    <path d="M597 582.10 c0 -1.70 0.40 -2.25 4.90 -6.60 2.65 -2.65 6.65 -6.45 8.85 -8.50 2.20 -2.05 9.50 -9.05 16.25 -15.50 6.75 -6.45 14.50 -13.90 17.25 -16.50 2.75 -2.65 10.50 -10.05 17.25 -16.55 19.85 -19 20.30 -19.40 24.25 -21.25 1.40 -0.65 3.95 -1.30 5.75 -1.50 6.15 -0.60 9.95 1.45 11.95 6.50 0.55 1.40 4.30 12 8.30 23.55 4.05 11.55 8.30 23.70 9.50 27 6.20 17.20 9.75 27.80 9.75 29.20 l0 1.55 -6.60 0.10 c-3.65 0 -8.80 0.10 -11.40 0.15 -2.60 0.10 -5.05 -0.05 -5.40 -0.25 -0.40 -0.15 -1.55 -2.80 -2.60 -5.80 -3.10 -8.85 -5.70 -15.40 -6.25 -15.80 -0.25 -0.20 -12.60 -0.40 -27.35 -0.40 l-26.85 0 -9.65 9.40 c-5.35 5.15 -10.70 10.20 -11.95 11.25 l-2.30 1.85 -11.85 0 -11.80 0 0 -1.90z m94.70 -40.20 c-0.20 -0.65 -1.20 -3.60 -2.30 -6.65 -1.10 -3 -2.50 -7.25 -3.20 -9.40 l-1.25 -3.90 -10.75 10.35 c-5.85 5.70 -10.70 10.40 -10.70 10.50 0 0.10 6.45 0.20 14.30 0.20 l14.25 0 -0.35 -1.10z"/>
    <path d="M317.10 581.40 c0.15 -1.20 3 -10.15 6.35 -19.90 3.40 -9.75 6.35 -18.55 6.65 -19.50 0.25 -0.95 1.45 -4.45 2.70 -7.75 1.20 -3.30 4.65 -13.30 7.65 -22.25 l5.45 -16.25 10.55 -0.15 10.55 -0.10 0 2.05 c0 2 -3.40 12.50 -16.80 51.70 -3.20 9.35 -7.05 20.85 -8.60 25.60 l-2.85 8.60 -10.95 0.05 -10.90 0 0.20 -2.10z"/>
    <path d="M344 581.60 c0 -1.15 2.25 -8.60 5.55 -18.15 3.05 -8.90 7.35 -21.60 9.55 -28.20 6.75 -20.20 10.95 -31.90 11.95 -33.55 1.05 -1.70 3.75 -3.70 6.70 -4.90 2.60 -1.10 10.25 -1.10 12.55 0 0.95 0.45 2.35 1.75 3.15 2.90 0.75 1.10 7.75 14.65 15.50 30.05 7.75 15.35 14.20 28.05 14.30 28.20 0.15 0.10 1.30 -0.80 2.65 -2 1.30 -1.20 4.75 -4.20 7.60 -6.70 2.85 -2.45 6.50 -5.60 8 -7 1.55 -1.35 5.45 -4.75 8.70 -7.50 3.25 -2.75 11.25 -9.60 17.75 -15.15 15.60 -13.45 22.55 -19.30 24.80 -20.85 4.45 -3 12.10 -4.10 16.05 -2.30 3 1.35 3.70 2.65 3.70 6.80 0 3.90 -0.45 5.30 -9.95 33.25 -2.75 8.10 -7.15 21.05 -9.75 28.75 -2.65 7.70 -5.15 14.95 -5.60 16.15 l-0.80 2.10 -10.45 0 -10.45 0 0 -2.10 c0 -1.20 1 -5.05 2.20 -8.65 10.75 -31.90 12.75 -37.95 12.55 -38.20 -0.15 -0.10 -1.45 0.90 -2.90 2.25 -3.10 3 -9.95 9.05 -14.10 12.45 -1.65 1.40 -7.25 6.20 -12.50 10.75 -27.80 24.25 -26.75 23.50 -34.65 23.50 -4.90 0 -7.45 -0.90 -9.70 -3.30 -1.10 -1.20 -15.95 -31.05 -21.90 -44.10 -0.90 -2 -1.75 -3.55 -1.85 -3.45 -0.15 0.20 -12.50 36.30 -15.50 45.50 l-1.75 5.35 -10.70 0 -10.70 0 0 -1.90z"/>
    <path d="M491.15 580.90 c0.10 -1.65 3.05 -11.05 7.60 -24.15 4.05 -11.80 10.35 -30.40 13.95 -41.25 l6.60 -19.75 36.75 -0.15 c24.20 -0.10 38.40 0.05 41.70 0.40 12.80 1.40 21.10 5.55 22.70 11.35 1.20 4.20 0.70 8.05 -2 15.95 -3.50 10.30 -6.20 15.40 -10.25 19.15 -3.75 3.55 -10.25 6.90 -16.80 8.75 -8.35 2.40 -13.20 2.75 -42.15 3.05 -14.80 0.15 -27 0.35 -27.05 0.40 -0.05 0.05 -1.50 4.25 -3.20 9.35 -1.75 5.10 -4 11.55 -5.10 14.40 l-1.95 5.10 -10.55 0 -10.50 0 0.25 -2.60z m93.95 -46.80 c4.45 -1.20 7.65 -3.15 8.75 -5.30 0.45 -0.85 1.40 -3.35 2.20 -5.65 l1.35 -4.10 -0.95 -1.30 c-0.65 -0.80 -2.20 -1.60 -4.35 -2.25 -3.20 -0.95 -4.45 -1 -29.85 -0.90 l-26.50 0.15 -1.20 3.50 c-1.20 3.55 -5.20 14.75 -5.85 16.40 -0.30 0.90 0.70 0.90 26.10 0.75 25.15 -0.20 26.65 -0.25 30.30 -1.30z"/>
    <path d="M759.95 582.75 c-10.60 -1.30 -17.60 -3.85 -21.10 -7.70 -2.35 -2.60 -2.60 -3.70 -2.55 -10.05 0.05 -5 0.20 -5.60 2.85 -13.25 1.55 -4.40 4.25 -12.40 6.10 -17.75 4.45 -13.15 6 -17.05 8.35 -21.65 4.70 -9.05 14.80 -14.15 32.40 -16.30 2.55 -0.35 17.10 -0.55 37.10 -0.55 l32.90 0 0 1.90 c0 1.05 -1.10 5.25 -2.40 9.35 l-2.40 7.50 -35.75 0.25 -35.70 0.25 -3 1.50 c-2.05 1 -3.25 2 -3.70 3 -1.05 2.15 -3.50 9.05 -9.10 25.60 -3.95 11.60 -4.90 14.85 -4.45 15.60 0.25 0.55 1.80 1.50 3.35 2.15 l2.90 1.15 33.65 0.15 33.60 0.15 0 2.05 c0 1.80 -3.75 14 -5.05 16.55 -0.45 0.80 -2.45 0.85 -31.60 0.80 -21.95 -0.05 -32.65 -0.25 -36.40 -0.70z"/>
    <path d="M867.50 582.05 c0 -0.80 0.25 -2.10 0.55 -2.90 0.30 -0.75 2.45 -6.90 4.75 -13.65 2.30 -6.75 5.05 -14.70 6.15 -17.75 1.10 -3 3.50 -10.10 5.35 -15.75 1.85 -5.65 3.90 -11.80 4.50 -13.75 0.65 -1.90 1.20 -3.55 1.20 -3.60 0 -0.10 -8.10 -0.15 -18 -0.15 l-18 0 0 -2.40 c0 -1.45 0.90 -5.15 2.25 -9.50 l2.30 -7.10 48.75 0 48.80 0 -0.20 2.40 c-0.15 1.30 -1.35 5.55 -2.70 9.45 l-2.45 7.15 -19.10 0 c-10.55 0 -19.15 0.05 -19.15 0.15 0 0.10 -12 35.50 -18.85 55.60 -1.75 5.25 -3.45 10.35 -3.80 11.40 l-0.55 1.85 -10.90 0 -10.90 0 0 -1.45z"/>
  </g>
</svg>