<?xml version="1.0" encoding="utf-8"?>
<!DOCTYPE svg PUBLIC "-//W3C//DTD SVG 1.0//EN" "http://www.w3.org/TR/2001/REC-SVG-20010904/DTD/svg10.dtd">
<svg version="1.0" xmlns="http://www.w3.org/2000/svg" width="100px" height="100px" viewBox="0 0 1024 1024" preserveAspectRatio="xMidYMid meet">
 <g fill="#ffffff">
  <path d="M444 998 c-3.45 -4.70 -7.80 -10.75 -9.75 -13.45 -1.90 -2.65 -6 -8.25 -9.05 -12.35 -5.05 -6.75 -10.10 -13.70 -26.85 -36.65 -3.10 -4.25 -6.85 -9.40 -8.40 -11.50 -6.55 -8.95 -19.55 -26.70 -22.85 -31.30 -1.95 -2.75 -6 -8.30 -8.95 -12.35 -3 -4 -8.65 -11.75 -12.60 -17.25 -4 -5.45 -9.05 -12.35 -11.30 -15.40 -2.25 -3 -5.75 -7.85 -7.80 -10.65 -2.05 -2.85 -6.05 -8.40 -8.95 -12.25 -2.90 -3.90 -6.60 -9 -8.25 -11.30 -1.65 -2.30 -6.50 -8.90 -10.75 -14.75 -4.25 -5.80 -9.45 -12.90 -11.45 -15.80 -2.05 -2.90 -4.85 -6.75 -6.20 -8.65 l-2.45 -3.35 -1.30 0.95 c-2.20 1.55 -8.70 7.10 -35.95 30.55 -7.85 6.75 -15.40 13.25 -16.85 14.40 -1.40 1.20 -5.25 4.50 -8.55 7.35 -7.70 6.65 -33.45 28.70 -44.75 38.40 -4.80 4.10 -12.25 10.45 -16.50 14.10 -4.25 3.65 -10.75 9.20 -14.45 12.35 -3.70 3.10 -7.90 6.65 -9.30 7.90 -1.45 1.25 -4.70 4.05 -7.30 6.25 -2.55 2.20 -5.80 5.05 -7.20 6.30 -1.35 1.25 -6.30 5.50 -11 9.45 -4.65 3.95 -13.45 11.50 -19.50 16.75 -6.05 5.20 -12.70 10.95 -14.80 12.75 -6 5.15 -16.90 14.55 -27.20 23.50 -5.20 4.55 -11.75 10.15 -14.50 12.50 -2.75 2.35 -6.40 5.55 -8.15 7.15 -2.60 2.30 -3.55 2.85 -4.90 2.85 -1.65 0 -1.70 -0.05 -1.70 -2.05 0 -1.90 1.75 -6.90 6.85 -19.95 0.70 -1.80 2.60 -6.60 4.20 -10.75 4.05 -10.50 9.45 -24.40 13.70 -35.25 2 -5.10 5.25 -13.40 7.25 -18.50 1.95 -5.10 5.45 -14.20 7.80 -20.25 9.95 -25.55 12.25 -31.45 15.35 -39.50 1.80 -4.65 5.50 -14.25 8.25 -21.25 13.30 -33.95 26.70 -68.50 28.80 -74.25 0.95 -2.45 2.60 -6.75 3.75 -9.50 1.15 -2.75 3.55 -8.80 5.30 -13.50 1.75 -4.65 5.10 -13.45 7.50 -19.50 7.90 -19.90 14.30 -36.45 15.50 -39.75 0.65 -1.80 2.20 -5.65 3.45 -8.65 1.30 -2.95 3 -7.25 3.80 -9.50 0.80 -2.30 4.55 -12 8.30 -21.60 3.75 -9.65 6.85 -17.95 6.90 -18.50 0 -0.55 -7.35 -11.90 -16.35 -25.25 -9.05 -13.35 -20.15 -29.75 -24.70 -36.50 -4.55 -6.75 -14.05 -20.80 -21.15 -31.25 -14.25 -21.10 -23.75 -35.10 -31.60 -46.75 -2.85 -4.25 -8.50 -12.60 -12.50 -18.50 -6.90 -10.20 -16.65 -24.60 -33.25 -49.20 -12 -17.70 -11.65 -17.15 -11.65 -19.05 l0 -1.75 111.45 0 c88.55 0 111.55 -0.15 111.95 -0.65 0.25 -0.30 0.85 -1.70 1.30 -3.10 0.40 -1.35 1.60 -4.75 2.60 -7.50 1 -2.75 2.90 -8.15 4.20 -12 1.35 -3.85 4.75 -13.50 7.50 -21.50 2.80 -7.95 6.75 -19.20 8.75 -25 2.05 -5.75 5.65 -16 8 -22.75 2.40 -6.75 6.35 -18 8.75 -25 2.40 -7 5.90 -17 7.75 -22.25 6.75 -19.10 20.15 -57.50 24.75 -71 1.60 -4.65 4.65 -13.45 6.75 -19.50 4.50 -12.90 6.30 -18.05 13.65 -39.50 5.05 -14.70 8.30 -23.95 20.45 -58.75 2.35 -6.75 5.15 -14.70 6.15 -17.75 1.05 -3 2.60 -7.40 3.40 -9.75 0.85 -2.35 2 -5.50 2.55 -7 0.90 -2.60 1.10 -2.75 2.75 -2.90 1.60 -0.15 1.80 0 1.80 1 0 0.60 0.55 6.65 1.25 13.40 1.95 19.70 3.30 33.35 3.75 39 0.25 2.90 1.15 11.90 1.95 20 0.85 8.10 1.75 17.70 2.05 21.25 0.60 7.05 5.10 54.25 6.25 65.25 0.35 3.70 0.90 9.70 1.25 13.25 0.30 3.60 0.75 8.75 1 11.50 0.25 2.75 1.15 12.20 2 21 3.90 40.90 4.50 47.20 5.50 57.50 0.55 6.05 1.60 17.30 2.25 25 0.70 7.70 1.85 19.85 2.50 27 0.70 7.15 1.70 17.95 2.25 24 0.55 6.05 1.20 13.35 1.50 16.25 0.25 2.90 0.50 6.25 0.50 7.55 0 1.25 0.25 2.50 0.60 2.85 0.45 0.45 42.90 0.60 187.95 0.60 l187.40 0 43.90 17.50 c24.15 9.65 44.45 17.80 45.15 18.10 0.70 0.30 16.55 6.65 35.25 14.15 18.70 7.50 39.80 16 46.85 18.80 l12.90 5.20 0 1.65 0 1.60 -299.45 0 -299.45 0 -0.30 -2.60 c-0.20 -1.45 -0.55 -4.90 -0.80 -7.65 -0.25 -2.75 -0.80 -8.60 -1.25 -13 -0.40 -4.40 -1.20 -12.15 -1.75 -17.25 -0.55 -5.10 -1.45 -14.10 -2 -20 -1.70 -18.15 -2 -21.10 -2.50 -25.75 -0.95 -8.80 -1.45 -13.55 -1.95 -18.50 -1.25 -11.90 -2.65 -26.05 -4.05 -40 -0.85 -8.25 -1.85 -18.25 -2.25 -22.25 -1.90 -18.75 -3.85 -38.80 -4.30 -44.25 -0.30 -3.30 -0.70 -6.80 -0.90 -7.75 l-0.35 -1.70 -1.15 3.20 c-0.60 1.80 -2.45 7.10 -4.05 11.75 -4.75 13.70 -9.05 26 -14.50 41.50 -7.55 21.55 -11.70 33.30 -15.75 45 -2 5.80 -5.60 16 -8 22.75 -2.40 6.75 -6.45 18.35 -9 25.75 -2.60 7.45 -6.40 18.25 -8.50 24 -2.10 5.80 -4.65 12.85 -5.60 15.75 -0.95 2.90 -2.50 7.40 -3.50 10 -1 2.60 -2.85 7.90 -4.15 11.75 l-2.40 7 -63.35 0.15 c-63.10 0.10 -63.35 0.10 -64.80 1.15 -0.80 0.55 -1.45 1.50 -1.45 2.05 0 0.60 3.10 5.70 6.90 11.35 25.15 37.45 35.60 53 52.40 78.05 31.40 46.80 30.70 45.80 30.70 47.30 0 0.75 -3.05 9.05 -6.85 18.45 -3.75 9.35 -7.65 19.25 -8.65 22 -1.05 2.75 -5.60 14.45 -10.10 26 -10.15 25.75 -14.65 37.25 -18.45 47 -1.60 4.15 -4.35 11.20 -6.15 15.75 -1.75 4.55 -4.05 10.40 -5.05 13 -1 2.60 -3 7.80 -4.50 11.50 -1.50 3.70 -4.75 12.05 -7.25 18.50 -2.55 6.45 -6.15 15.65 -8.05 20.45 -1.95 4.75 -3.45 8.75 -3.35 8.80 0.10 0.10 1.30 -0.85 2.65 -2.05 1.40 -1.25 4.95 -4.30 7.95 -6.85 3 -2.55 10.55 -9 16.75 -14.35 6.20 -5.35 14 -12.05 17.30 -14.85 3.30 -2.75 8.85 -7.50 12.30 -10.50 3.45 -2.95 8.20 -7 10.50 -8.95 2.30 -1.95 10.60 -9.05 18.45 -15.75 14.05 -12.05 21.45 -18.35 38.20 -32.40 4.70 -3.95 10.15 -8.60 12.10 -10.35 5.65 -5.05 5.85 -5 13.75 6.05 2.55 3.60 6.55 9.10 8.90 12.25 2.35 3.15 5.85 8 7.80 10.75 1.90 2.75 7.35 10.25 12 16.65 4.70 6.45 12.20 16.80 16.75 23.05 7.95 11 14.05 19.40 25.75 35.55 7.90 10.90 8.50 11.75 13.60 18.85 6.55 9.05 12.45 17.15 12.90 17.55 0.20 0.20 0.25 -1.10 0.05 -2.90 -0.15 -1.80 -0.65 -6.85 -1.05 -11.25 -0.40 -4.40 -0.95 -9.70 -1.25 -11.75 -0.25 -2.05 -0.70 -6.20 -1 -9.25 -0.25 -3 -0.95 -10.20 -1.50 -16 -1.35 -14.15 -1.90 -19.70 -2.75 -28 -1.10 -10.05 -3 -29.25 -4.50 -45.50 -0.70 -7.65 -1.25 -12.90 -2.75 -27.50 -1.35 -13.05 -3.65 -37.55 -3.85 -41.35 l-0.25 -4.40 312.55 0 312.55 0 0 1.95 c0 1.65 -0.20 2 -1.25 2.25 -0.70 0.20 -7.75 2.95 -15.65 6.15 -7.90 3.15 -16.80 6.75 -19.85 7.90 -8.70 3.35 -19.25 7.55 -28.75 11.35 -4.80 1.95 -10.10 4.05 -11.75 4.65 -1.65 0.65 -7.50 2.95 -13 5.15 -5.50 2.20 -14.15 5.60 -19.25 7.60 -5.10 2 -22.40 8.85 -38.50 15.25 -16.10 6.45 -31.15 12.35 -33.45 13.20 l-4.25 1.55 -193.15 0 -193.15 0 0 1 c0 1.25 1.65 17.85 3 30.50 0.55 5.10 1.55 15.35 2.25 22.75 0.65 7.45 1.70 17.90 2.25 23.25 0.55 5.35 1.45 14.60 2 20.50 0.55 5.90 1.60 16.50 2.25 23.50 0.70 7 1.50 15.10 1.75 18 0.30 2.90 1.30 13.15 2.25 22.75 0.95 9.65 4.20 42.35 7.25 72.75 3 30.40 5.70 57.65 6 60.60 0.35 2.95 0.45 5.60 0.25 5.90 -0.15 0.25 -1.05 0.50 -1.90 0.50 -1.50 0 -2.05 -0.55 -7.85 -8.50z"/>
  <path d="M675.20 780.65 c0.15 -2.35 0.55 -4.60 0.85 -5 0.45 -0.50 2.85 -0.65 10.50 -0.65 l9.90 0 0.80 -1.50 c0.40 -0.80 0.75 -1.65 0.75 -1.85 0 -0.20 -3.30 -0.40 -7.40 -0.40 -9.25 -0.05 -10.85 -0.35 -11.85 -2.25 -1.15 -2.20 -0.90 -7.40 0.55 -14.20 2 -9.20 2.70 -11.40 4.20 -12.85 2.20 -2.25 4.25 -2.50 18.85 -2.35 l13.40 0.15 0.15 1.35 c0.10 0.80 -0.45 4.15 -1.15 7.50 -0.75 3.40 -2 9.30 -2.80 13.15 -3.60 16.75 -4 18.30 -5.55 20 -2.55 2.90 -4.45 3.25 -18.80 3.25 l-12.75 0 0.35 -4.35z m25.45 -20.75 c0.15 -0.90 0.75 -3.60 1.25 -6 l1 -4.40 -4.60 0 c-3 0 -4.90 0.25 -5.50 0.65 -0.55 0.40 -1.35 2.45 -2.05 5.40 -1.45 5.90 -1.40 5.95 5.05 5.95 l4.55 0 0.30 -1.60z"/>
  <path d="M968.15 784.20 c-0.15 -0.40 0 -2.45 0.35 -4.50 0.55 -3.25 0.85 -3.85 1.85 -4.25 0.65 -0.25 5.25 -0.45 10.15 -0.45 8.65 0 8.95 -0.05 9.70 -1.10 1.50 -2.15 1.20 -2.25 -7.05 -2.50 -4.35 -0.15 -8.55 -0.50 -9.30 -0.85 -1.60 -0.65 -2.85 -3.15 -2.85 -5.80 0 -2.05 2.05 -12.40 3.40 -17.35 1.25 -4.35 2.20 -5.75 4.75 -6.95 1.90 -0.85 3.45 -0.95 16.05 -0.95 l13.95 0 -0.35 3.85 c-0.15 2.10 -0.50 4.55 -0.80 5.35 -0.25 0.85 -1.25 5.50 -2.25 10.30 -4.10 19.85 -4.50 21.30 -7 23.65 -2.20 2 -4.70 2.35 -18 2.35 -10.65 0 -12.30 -0.10 -12.60 -0.80z m26.70 -28.20 c0.60 -2.90 1.15 -5.55 1.15 -5.85 0 -0.50 -1.25 -0.65 -4.75 -0.65 -4.50 0 -4.75 0.05 -5.55 1.25 -1 1.50 -2.85 9.15 -2.50 10.10 0.20 0.55 1.45 0.65 5.40 0.55 l5.10 -0.15 1.15 -5.25z"/>
  <path d="M448 778.25 c0 -1.25 0.55 -4.80 1.25 -7.90 1.15 -5.20 4.30 -20.50 5.75 -27.70 l0.65 -3.15 13.95 0 c15.95 0 16.90 0.15 17.90 3.30 0.85 2.50 0.40 6.70 -1.65 15.50 -1.05 4.35 -2.15 7.90 -3 9.35 -1.95 3.30 -4.20 3.90 -14.35 3.80 l-7.75 -0.05 -1 4.40 -1.05 4.45 -5.35 0.15 -5.35 0.15 0 -2.30z m24.95 -17.70 c0.55 -0.55 1.20 -2.25 1.55 -3.90 0.30 -1.60 0.80 -3.70 1 -4.65 0.35 -1.20 0.30 -1.80 -0.15 -2.10 -0.30 -0.20 -2.65 -0.40 -5.20 -0.40 l-4.60 0 -0.50 1.90 c-1 3.75 -2.05 8.35 -2.05 9.25 0 0.75 0.55 0.85 4.50 0.85 3.75 0 4.65 -0.15 5.45 -0.95z"/>
  <path d="M485.50 769.65 c0 -1.05 0.80 -5.60 1.75 -10.15 5.15 -24.70 6.20 -29.50 6.50 -29.95 0.20 -0.35 2.40 -0.55 5.55 -0.55 l5.20 0 0 2.05 c0 1.80 -5.25 27.65 -7.45 36.70 l-0.85 3.50 -5.35 0.15 -5.35 0.15 0 -1.90z"/>
  <path d="M504.75 771.15 c-5.30 -1.15 -5.80 -3.85 -3.05 -16.40 0.75 -3.30 1.70 -7.70 2.10 -9.75 1.25 -6.10 0.55 -5.55 6.60 -5.40 6.90 0.20 6.70 -0.95 3 14.60 -1.25 5.30 -1.40 6.50 -0.85 6.85 0.40 0.25 2.80 0.45 5.35 0.45 l4.60 0 1 -1.60 c0.55 -0.90 1.20 -2.85 1.55 -4.40 0.45 -2.25 1.90 -9.05 3.20 -14.85 0.25 -1.10 0.45 -1.15 5.80 -1.15 l5.55 0 -0.25 2.15 c-0.25 2.25 -1.90 10.10 -6.10 28.75 -0.25 1.05 -0.50 1.10 -5.50 1.10 -2.90 0 -5.25 -0.15 -5.25 -0.40 0 -0.20 -1.95 -0.20 -4.35 0 -4.95 0.35 -11.90 0.40 -13.40 0.05z"/>
  <path d="M536.50 769.30 c0 -1.95 2.85 -16.05 5.30 -26.45 l0.80 -3.40 13.60 0.25 c7.45 0.15 14.25 0.25 15.05 0.25 0.85 0 5.10 -0.10 9.55 -0.25 l8 -0.25 1.60 1.45 c1.50 1.45 1.60 1.70 1.60 5.25 0 3.30 -1.60 12.30 -4.05 23 l-0.55 2.35 -5.45 0 -5.45 0 0 -1.35 c0 -0.80 0.80 -5.40 1.80 -10.30 0.95 -4.90 1.65 -9.25 1.50 -9.65 -0.35 -0.90 -5.75 -0.95 -7 -0.05 -0.60 0.45 -1.60 3.65 -3.25 10.85 l-2.40 10.25 -5.30 0.15 -5.35 0.15 0 -1.75 c0 -0.95 0.80 -5.45 1.75 -10 0.95 -4.60 1.75 -8.75 1.75 -9.30 0 -0.90 -0.35 -1 -3.25 -1 -2.45 0 -3.45 0.20 -4.10 0.90 -0.60 0.55 -1.70 4.40 -3.15 11 l-2.20 10.10 -5.40 0 -5.40 0 0 -2.20z"/>
  <path d="M590 769.65 c0 -1.05 0.35 -3.35 0.75 -5.15 0.40 -1.80 1.95 -9.30 3.50 -16.75 1.50 -7.40 3.05 -14.60 3.40 -16 l0.65 -2.50 5.35 -0.15 c4.60 -0.10 5.40 0 5.70 0.70 0.25 0.70 -0.10 3.15 -1.20 8.35 l-0.25 1.35 8.05 0 c11.05 0 12.05 0.55 12.05 6.70 0 3.75 -2.65 17.05 -3.95 20.05 -2.15 4.85 -3.60 5.20 -20.40 5.25 l-13.65 0 0 -1.85z m23.70 -9.50 c0.90 -1.85 2.45 -8.95 2.15 -9.85 -0.20 -0.55 -1.55 -0.75 -5.25 -0.90 l-4.95 -0.15 -1.15 5.50 c-0.65 3.05 -1.25 5.80 -1.40 6.15 -0.15 0.45 1 0.60 4.85 0.60 5 0 5.05 0 5.75 -1.35z"/>
  <path d="M626.60 768.15 c0.25 -2.75 3.30 -17.85 5.50 -26.75 l0.45 -1.90 5.25 0 c4.45 0 5.30 0.15 5.55 0.85 0.35 0.90 -0.75 6.65 -4.05 21.40 l-2.15 9.50 -5.40 0.15 -5.40 0.15 0.25 -3.40z"/>
  <path d="M639.65 769.15 c0.15 -1.30 1.65 -8.45 3.25 -15.90 l2.95 -13.50 14.45 -0.15 c15.15 -0.10 16.55 0.05 17.95 2.10 1.40 2 0.75 7.95 -2.65 23.30 l-1.35 6.25 -5.40 0.15 -5.35 0.15 0 -2 c0 -1.10 0.80 -5.90 1.75 -10.65 1.35 -6.60 1.60 -8.70 1.10 -9.05 -0.90 -0.60 -9.75 -0.15 -10.45 0.55 -0.35 0.35 -1.65 5.20 -2.90 10.75 l-2.25 10.10 -5.70 0.15 -5.70 0.15 0.30 -2.40z"/>
  <path d="M735.65 770.95 c-2.65 -0.75 -3.65 -2.55 -3.65 -6.50 0 -4.95 1.65 -11.70 3.35 -13.55 0.50 -0.55 0.80 -2.10 0.90 -4.75 0.15 -4.70 1.45 -10.90 2.75 -13.05 2 -3.25 2.40 -3.35 16.10 -3.50 11.10 -0.15 12.45 -0.10 12.70 0.65 0.20 0.45 0 2.65 -0.35 4.90 l-0.75 4.10 -8.45 0.25 c-4.70 0.15 -8.75 0.40 -9.10 0.65 -0.80 0.50 -1.80 3.70 -1.45 4.65 0.20 0.60 1 0.70 3.40 0.60 l3.10 -0.15 0.45 -2.10 c0.20 -1.10 0.70 -2.20 1.15 -2.35 0.40 -0.15 2.85 -0.15 5.50 0.05 l4.80 0.30 -0.20 2.20 -0.15 2.15 3.60 0 3.65 0 0 1.65 c-0.05 0.85 -0.30 3.05 -0.65 4.85 l-0.60 3.25 -3.95 0.25 c-4.35 0.25 -3.95 -0.10 -5 4.15 l-0.30 1.35 3.25 0 c2.60 0 3.35 0.15 3.60 0.85 0.30 0.70 -0.60 7.40 -1.15 8.90 -0.30 0.70 -30.05 0.90 -32.55 0.20z m15.30 -11.05 c0.25 -0.90 0.60 -2.40 0.80 -3.25 l0.35 -1.65 -2.75 0 c-2.40 0 -2.90 0.20 -3.80 1.35 -2.60 3.25 -1.80 5.15 2.20 5.15 2.60 0 2.70 -0.05 3.20 -1.60z"/>
  <path d="M789.65 768.90 c0.30 -2.85 8.15 -38.65 8.60 -39.45 0.20 -0.25 2.65 -0.45 5.55 -0.45 l5.20 0 0 2.15 c0 1.90 -0.55 5.05 -1.30 7.50 -0.25 0.80 0.40 0.85 8.75 0.85 l9 0 1.85 1.60 1.85 1.60 -0.30 4.30 c-0.15 2.35 -0.95 7.05 -1.80 10.50 -0.80 3.45 -1.85 8 -2.30 10.15 l-0.85 3.85 -5.20 0 c-4.35 0 -5.30 -0.15 -5.55 -0.80 -0.35 -0.90 0 -2.60 2.30 -12.90 0.90 -3.80 1.50 -7.25 1.35 -7.65 -0.20 -0.55 -1.40 -0.65 -5.40 -0.55 l-5.15 0.15 -0.85 1.75 c-0.45 0.95 -1.55 5 -2.40 9 -0.85 4 -1.80 8.10 -2.05 9.15 l-0.50 1.85 -5.55 0 -5.55 0 0.30 -2.60z"/>
  <path d="M832.30 771 c-4.90 -0.95 -5.35 -4.50 -2.30 -17.90 3.05 -13.50 2.70 -13.30 19.90 -13.50 l12.15 -0.15 1.55 1.55 c1.55 1.55 1.55 1.60 1.25 5.65 -0.30 3.95 -1.35 9.50 -2.35 12.10 l-0.50 1.25 -11 0 c-9.45 0 -11 0.10 -11 0.75 0 0.65 1.50 0.75 10.30 0.75 l10.35 0 -0.25 2.90 c-0.15 1.55 -0.55 3.80 -0.90 5 l-0.65 2.10 -12.30 -0.05 c-6.75 -0.05 -13.20 -0.25 -14.25 -0.45z m20.65 -20.45 c0.55 -0.35 0.45 -0.55 -0.45 -1.05 -1.70 -0.90 -8.75 -0.45 -9.85 0.65 -0.80 0.80 -0.60 0.85 4.35 0.85 2.90 0 5.55 -0.20 5.95 -0.45z"/>
  <path d="M865.70 771 c-2 -0.80 -2.70 -2.45 -2.70 -6.25 0 -4.55 1.50 -9.90 3.25 -11.75 2.05 -2.15 4.50 -2.55 13.65 -2.40 6.20 0.10 8.10 0 8.10 -0.45 0 -0.65 -4.05 -1 -7.75 -0.75 -0.80 0.05 -4.05 0 -7.20 -0.20 l-5.70 -0.30 0.30 -3.35 c0.10 -1.80 0.50 -3.90 0.80 -4.65 l0.55 -1.40 13.50 0 c17.20 0 17.50 0.10 17.50 6.70 0 3.30 -0.70 6.90 -3.55 18.95 l-1.55 6.35 -14.05 -0.05 c-7.75 0 -14.60 -0.20 -15.15 -0.45z m20.15 -10.30 c0.25 -0.80 -7.75 -1.40 -9.50 -0.75 -0.75 0.30 -1.35 0.75 -1.35 1.05 0 0.75 10.60 0.45 10.85 -0.30z"/>
  <path d="M901.65 770.75 c-0.85 -0.35 -1.80 -1.10 -2.10 -1.70 -1.05 -1.90 -0.55 -6.85 1.45 -15.45 1.10 -4.65 2.55 -11.40 3.25 -14.95 0.70 -3.50 1.40 -6.90 1.55 -7.50 0.20 -1.10 0.40 -1.15 5.80 -1.15 l5.55 0 -0.30 2.90 c-0.15 1.55 -0.45 3.70 -0.65 4.75 l-0.35 1.85 3.35 0 3.30 0 0 2.40 c0 1.30 -0.30 3.50 -0.65 4.85 l-0.65 2.50 -3.65 0.15 c-3.15 0.15 -3.65 0.30 -4.05 1.25 -0.75 1.70 -2.45 10 -2.20 10.45 0.15 0.20 1.75 0.40 3.55 0.40 l3.30 0 -0.30 3.90 c-0.55 6.65 0.10 6.10 -7.80 6.10 -4.65 -0.05 -7.30 -0.25 -8.40 -0.75z"/>
  <path d="M920 769 c0 -2.60 3.30 -19.05 5.55 -27.60 l0.50 -1.90 3.85 -0.10 3.85 -0.10 -3.70 -0.15 -3.70 -0.20 0.30 -2.85 c0.15 -1.55 0.55 -3.75 0.95 -4.85 l0.65 -2 5.15 -0.15 c4.45 -0.10 5.15 0 5.45 0.70 0.40 1.05 -0.65 7.35 -1.40 8.85 -0.35 0.55 -0.65 1.95 -0.70 3.05 -0.05 1.70 -3.55 18.55 -5.20 25.30 -0.25 0.95 -0.60 2.35 -0.75 3.15 l-0.30 1.35 -5.25 0 -5.25 0 0 -2.50z"/>
  <path d="M933 770.10 c0 -1.40 1.70 -9.70 4.65 -22.85 l1.70 -7.50 14.20 -0.15 c14.90 -0.10 16.30 0.05 17.70 2.10 1.30 1.80 0.90 7.20 -1.25 17 -1.05 4.95 -2.10 9.90 -2.30 10.95 l-0.30 1.85 -5.45 0 -5.45 0 0 -2.10 c0 -1.20 0.60 -4.50 1.30 -7.40 1.65 -6.90 2.60 -11.95 2.30 -12.25 -0.15 -0.15 -2.45 -0.25 -5.15 -0.25 -5.20 0 -6.20 0.40 -6.70 2.65 -2.15 9.95 -2.95 13.60 -3.60 16.25 l-0.75 3.10 -5.45 0 -5.45 0 0 -1.40z"/>
  <path d="M633.50 736.55 c0 -1.40 0.25 -3.65 0.55 -5.05 l0.55 -2.50 5.45 0 5.45 0 0 1.90 c-0.05 1 -0.30 3.20 -0.65 4.85 l-0.65 3 -5.35 0.15 -5.35 0.15 0 -2.50z"/>
  <path d="M597 582.10 c0 -1.70 0.40 -2.25 4.90 -6.60 2.65 -2.65 6.65 -6.45 8.85 -8.50 2.20 -2.05 9.50 -9.05 16.25 -15.50 6.75 -6.45 14.50 -13.90 17.25 -16.50 2.75 -2.65 10.50 -10.05 17.25 -16.55 19.85 -19 20.30 -19.40 24.25 -21.25 1.40 -0.65 3.95 -1.30 5.75 -1.50 6.15 -0.60 9.95 1.45 11.95 6.50 0.55 1.40 4.30 12 8.30 23.55 4.05 11.55 8.30 23.70 9.50 27 6.20 17.20 9.75 27.80 9.75 29.20 l0 1.55 -6.60 0.10 c-3.65 0 -8.80 0.10 -11.40 0.15 -2.60 0.10 -5.05 -0.05 -5.40 -0.25 -0.40 -0.15 -1.55 -2.80 -2.60 -5.80 -3.10 -8.85 -5.70 -15.40 -6.25 -15.80 -0.25 -0.20 -12.60 -0.40 -27.35 -0.40 l-26.85 0 -9.65 9.40 c-5.35 5.15 -10.70 10.20 -11.95 11.25 l-2.30 1.85 -11.85 0 -11.80 0 0 -1.90z m94.70 -40.20 c-0.20 -0.65 -1.20 -3.60 -2.30 -6.65 -1.10 -3 -2.50 -7.25 -3.20 -9.40 l-1.25 -3.90 -10.75 10.35 c-5.85 5.70 -10.70 10.40 -10.70 10.50 0 0.10 6.45 0.20 14.30 0.20 l14.25 0 -0.35 -1.10z"/>
  <path d="M317.10 581.40 c0.15 -1.20 3 -10.15 6.35 -19.90 3.40 -9.75 6.35 -18.55 6.65 -19.50 0.25 -0.95 1.45 -4.45 2.70 -7.75 1.20 -3.30 4.65 -13.30 7.65 -22.25 l5.45 -16.25 10.55 -0.15 10.55 -0.10 0 2.05 c0 2 -3.40 12.50 -16.80 51.70 -3.20 9.35 -7.05 20.85 -8.60 25.60 l-2.85 8.60 -10.95 0.05 -10.90 0 0.20 -2.10z"/>
  <path d="M344 581.60 c0 -1.15 2.25 -8.60 5.55 -18.15 3.05 -8.90 7.35 -21.60 9.55 -28.20 6.75 -20.20 10.95 -31.90 11.95 -33.55 1.05 -1.70 3.75 -3.70 6.70 -4.90 2.60 -1.10 10.25 -1.10 12.55 0 0.95 0.45 2.35 1.75 3.15 2.90 0.75 1.10 7.75 14.65 15.50 30.05 7.75 15.35 14.20 28.05 14.30 28.20 0.15 0.10 1.30 -0.80 2.65 -2 1.30 -1.20 4.75 -4.20 7.60 -6.70 2.85 -2.45 6.50 -5.60 8 -7 1.55 -1.35 5.45 -4.75 8.70 -7.50 3.25 -2.75 11.25 -9.60 17.75 -15.15 15.60 -13.45 22.55 -19.30 24.80 -20.85 4.45 -3 12.10 -4.10 16.05 -2.30 3 1.35 3.70 2.65 3.70 6.80 0 3.90 -0.45 5.30 -9.95 33.25 -2.75 8.10 -7.15 21.05 -9.75 28.75 -2.65 7.70 -5.15 14.95 -5.60 16.15 l-0.80 2.10 -10.45 0 -10.45 0 0 -2.10 c0 -1.20 1 -5.05 2.20 -8.65 10.75 -31.90 12.75 -37.95 12.55 -38.20 -0.15 -0.10 -1.45 0.90 -2.90 2.25 -3.10 3 -9.95 9.05 -14.10 12.45 -1.65 1.40 -7.25 6.20 -12.50 10.75 -27.80 24.25 -26.75 23.50 -34.65 23.50 -4.90 0 -7.45 -0.90 -9.70 -3.30 -1.10 -1.20 -15.95 -31.05 -21.90 -44.10 -0.90 -2 -1.75 -3.55 -1.85 -3.45 -0.15 0.20 -12.50 36.30 -15.50 45.50 l-1.75 5.35 -10.70 0 -10.70 0 0 -1.90z"/>
  <path d="M491.15 580.90 c0.10 -1.65 3.05 -11.05 7.60 -24.15 4.05 -11.80 10.35 -30.40 13.95 -41.25 l6.60 -19.75 36.75 -0.15 c24.20 -0.10 38.40 0.05 41.70 0.40 12.80 1.40 21.10 5.55 22.70 11.35 1.20 4.20 0.70 8.05 -2 15.95 -3.50 10.30 -6.20 15.40 -10.25 19.15 -3.75 3.55 -10.25 6.90 -16.80 8.75 -8.35 2.40 -13.20 2.75 -42.15 3.05 -14.80 0.15 -27 0.35 -27.05 0.40 -0.05 0.05 -1.50 4.25 -3.20 9.35 -1.75 5.10 -4 11.55 -5.10 14.40 l-1.95 5.10 -10.55 0 -10.50 0 0.25 -2.60z m93.95 -46.80 c4.45 -1.20 7.65 -3.15 8.75 -5.30 0.45 -0.85 1.40 -3.35 2.20 -5.65 l1.35 -4.10 -0.95 -1.30 c-0.65 -0.80 -2.20 -1.60 -4.35 -2.25 -3.20 -0.95 -4.45 -1 -29.85 -0.90 l-26.50 0.15 -1.20 3.50 c-1.20 3.55 -5.20 14.75 -5.85 16.40 -0.30 0.90 0.70 0.90 26.10 0.75 25.15 -0.20 26.65 -0.25 30.30 -1.30z"/>
  <path d="M759.95 582.75 c-10.60 -1.30 -17.60 -3.85 -21.10 -7.70 -2.35 -2.60 -2.60 -3.70 -2.55 -10.05 0.05 -5 0.20 -5.60 2.85 -13.25 1.55 -4.40 4.25 -12.40 6.10 -17.75 4.45 -13.15 6 -17.05 8.35 -21.65 4.70 -9.05 14.80 -14.15 32.40 -16.30 2.55 -0.35 17.10 -0.55 37.10 -0.55 l32.90 0 0 1.90 c0 1.05 -1.10 5.25 -2.40 9.35 l-2.40 7.50 -35.75 0.25 -35.70 0.25 -3 1.50 c-2.05 1 -3.25 2 -3.70 3 -1.05 2.15 -3.50 9.05 -9.10 25.60 -3.95 11.60 -4.90 14.85 -4.45 15.60 0.25 0.55 1.80 1.50 3.35 2.15 l2.90 1.15 33.65 0.15 33.60 0.15 0 2.05 c0 1.80 -3.75 14 -5.05 16.55 -0.45 0.80 -2.45 0.85 -31.60 0.80 -21.95 -0.05 -32.65 -0.25 -36.40 -0.70z"/>
  <path d="M867.50 582.05 c0 -0.80 0.25 -2.10 0.55 -2.90 0.30 -0.75 2.45 -6.90 4.75 -13.65 2.30 -6.75 5.05 -14.70 6.15 -17.75 1.10 -3 3.50 -10.10 5.35 -15.75 1.85 -5.65 3.90 -11.80 4.50 -13.75 0.65 -1.90 1.20 -3.55 1.20 -3.60 0 -0.10 -8.10 -0.15 -18 -0.15 l-18 0 0 -2.40 c0 -1.45 0.90 -5.15 2.25 -9.50 l2.30 -7.10 48.75 0 48.80 0 -0.20 2.40 c-0.15 1.30 -1.35 5.55 -2.70 9.45 l-2.45 7.15 -19.10 0 c-10.55 0 -19.15 0.05 -19.15 0.15 0 0.10 -12 35.50 -18.85 55.60 -1.75 5.25 -3.45 10.35 -3.80 11.40 l-0.55 1.85 -10.90 0 -10.90 0 0 -1.45z"/>
 </g>
</svg>